<svg width="88" height="71" viewBox="0 0 88 71" fill="none" xmlns="http://www.w3.org/2000/svg">
<path d="M2.32219 62.3756C-1.01461 58.622 -0.720729 52.8299 2.98036 49.446L54.413 2.35713C58.111 -1.02988 63.8173 -0.731575 67.151 3.02521C70.4878 6.7789 70.1939 12.571 66.4928 15.9549L15.0632 63.0437C11.3652 66.4307 5.65899 66.1324 2.32525 62.3756H2.32219Z" fill="white"/>
<path d="M29.2289 18.2025C30.1485 14.2473 27.7353 10.2843 23.8388 9.35076C19.9423 8.41726 16.038 10.8668 15.1183 14.822C14.1987 18.7771 16.6119 22.7402 20.5084 23.6737C24.4049 24.6072 28.3092 22.1576 29.2289 18.2025Z" fill="#028DFF"/>
<path d="M79.7686 31.2301C83.7722 31.2301 87.0178 27.9357 87.0178 23.8719C87.0178 19.8081 83.7722 16.5137 79.7686 16.5137C75.7651 16.5137 72.5195 19.8081 72.5195 23.8719C72.5195 27.9357 75.7651 31.2301 79.7686 31.2301Z" fill="#028DFF"/>
<path d="M68.8324 46.6584L44.9115 68.559C41.0788 72.0672 35.1736 71.7565 31.7174 67.8692C28.2612 63.9787 28.5673 57.9847 32.397 54.4765L56.3179 32.5758C60.1506 29.0676 66.0558 29.3784 69.512 33.2657C72.9682 37.1561 72.6621 43.1502 68.8324 46.6584Z" fill="white"/>
</svg>
